<svg width="24" height="16" viewBox="0 0 24 16" fill="none" xmlns="http://www.w3.org/2000/svg">
<path d="M0 0H24V16H0V0Z" fill="#DE2910"/>
<path d="M5.00973 5.97444L3.28687 7.35557L4.03258 5.24195L2.21973 3.98437L4.40544 4.05938L5.00973 1.89722L5.60973 4.05938L7.79544 3.98437L5.98258 5.24195L6.73258 7.35557L5.00973 5.97444ZM8.51973 2.18845L7.8683 2.39584L8.31401 1.86633L7.92401 1.28828L8.54973 1.56186L8.96116 1.00146L8.90116 1.70306L9.5483 1.93252L8.88401 2.09137L8.87116 2.79297L8.51973 2.18845ZM10.384 4.32413L9.70258 4.39915L10.2383 3.96672L9.95973 3.32689L10.5254 3.7152L11.0312 3.24305L10.8469 3.91818L11.4383 4.26677L10.7569 4.29325L10.6197 4.98161L10.384 4.32413ZM10.0883 6.93638L9.52258 6.54807L10.204 6.56572L10.3883 5.8906L10.5812 6.56572L11.2626 6.53925L10.6969 6.93638L10.9326 7.59385L10.3926 7.16142L9.85687 7.59826L10.0883 6.93638ZM8.36116 8.64404L7.79544 8.25133L8.47687 8.27339L8.66116 7.59826L8.85401 8.27339L9.53544 8.2425L8.96973 8.63963L9.20973 9.29711L8.66973 8.86909L8.13401 9.30593L8.36116 8.64404Z" fill="#FFDE00"/>
</svg>
