<svg width="12" height="8" viewBox="0 0 12 8" fill="none" xmlns="http://www.w3.org/2000/svg">
<path d="M6 0.505493C3.70727 0.505493 1.62811 1.75987 0.0938938 3.7973C-0.0312979 3.96422 -0.0312979 4.19742 0.0938938 4.36435C1.62811 6.40423 3.70727 7.65861 6 7.65861C8.29273 7.65861 10.3719 6.40423 11.9061 4.3668C12.0313 4.19988 12.0313 3.96668 11.9061 3.79976C10.3719 1.75987 8.29273 0.505493 6 0.505493ZM6.16447 6.60061C4.64253 6.69635 3.3857 5.44198 3.48144 3.91758C3.55999 2.66076 4.57871 1.64204 5.83553 1.56349C7.35747 1.46775 8.6143 2.72212 8.51856 4.24652C8.43756 5.50089 7.41884 6.51961 6.16447 6.60061ZM6.08837 5.43707C5.26849 5.48862 4.59098 4.81356 4.64498 3.99368C4.68671 3.31617 5.23658 2.76876 5.91408 2.72458C6.73397 2.67303 7.41148 3.34808 7.35747 4.16797C7.31329 4.84793 6.76342 5.39534 6.08837 5.43707Z" fill="#909090"/>
</svg>
