<?xml version="1.0" encoding="utf-8"?>
<svg xmlns="http://www.w3.org/2000/svg" xmlns:xlink="http://www.w3.org/1999/xlink">
    <symbol viewBox="0 0 13 8" id="a-right" xmlns="http://www.w3.org/2000/svg">
        <path
            d="M12.354 4.354a.5.5 0 0 0 0-.708L9.172.464a.5.5 0 1 0-.708.708L11.293 4 8.464 6.828a.5.5 0 1 0 .708.708l3.182-3.182zM0 4.5h12v-1H0v1z"/>
    </symbol>
    <symbol viewBox="0 0 22 22" id="down" xmlns="http://www.w3.org/2000/svg">
        <path d="m3.708 7.437 6.955 6.956a.579.579 0 0 0 .819 0l6.955-6.956"/>
    </symbol>
    <symbol viewBox="0 0 20 21" id="download" xmlns="http://www.w3.org/2000/svg">
        <path
            d="M18.179 20.081H1.82c-1 0-1.821-.786-1.821-1.786V14.01c0-.607.464-1.072 1.071-1.072.608 0 1.072.464 1.072 1.072v3.928h15.714V14.01c0-.607.464-1.072 1.072-1.072.607 0 1.071.464 1.071 1.072v4.285c0 1-.821 1.786-1.821 1.786z"/>
        <path
            d="M16.5 9.724a1.068 1.068 0 0 0-1.5-.072l-3.93 3.608V1.152c0-.607-.464-1.07-1.071-1.07s-1.072.463-1.072 1.07V13.26L5 9.652c-.465-.392-1.143-.32-1.5.108a1.095 1.095 0 0 0 .071 1.464L8.75 16.01a1.861 1.861 0 0 0 2.5 0l5.178-4.786a1.068 1.068 0 0 0 .072-1.5z"/>
    </symbol>
    <symbol viewBox="0 0 13 8" id="drop" xmlns="http://www.w3.org/2000/svg">
        <path d="m6.5 7.001-6.5-7h13l-6.5 7z"/>
    </symbol>
    <symbol viewBox="0 0 14 14" id="error" xmlns="http://www.w3.org/2000/svg">
        <path
            d="m8.529 7.135 4.587-4.587c1.006-.977-.552-2.535-1.529-1.528L7 5.607 2.413 1.02C1.436.013-.122 1.57.884 2.548l4.587 4.587-4.587 4.587c-1.005.978.552 2.537 1.529 1.529L7 8.664l4.587 4.587c.977 1.008 2.535-.551 1.529-1.529L8.529 7.135z"/>
    </symbol>
    <symbol viewBox="0 0 12 8" id="eye" xmlns="http://www.w3.org/2000/svg">
        <path
            d="M6 .423C3.707.423 1.628 1.678.094 3.715a.475.475 0 0 0 0 .567C1.628 6.322 3.707 7.576 6 7.576c2.293 0 4.372-1.254 5.906-3.291a.475.475 0 0 0 0-.567C10.372 1.678 8.293.423 6 .423zm.164 6.095a2.525 2.525 0 0 1-2.683-2.683 2.53 2.53 0 0 1 2.355-2.354 2.525 2.525 0 0 1 2.683 2.683 2.538 2.538 0 0 1-2.355 2.354zm-.076-1.163a1.357 1.357 0 0 1-1.443-1.443 1.365 1.365 0 0 1 1.27-1.27 1.357 1.357 0 0 1 1.442 1.444 1.365 1.365 0 0 1-1.269 1.269z"/>
    </symbol>
    <symbol viewBox="0 0 12 8" id="n-arrow" xmlns="http://www.w3.org/2000/svg">
        <path fill-rule="evenodd" clip-rule="evenodd"
              d="M8.41.709 12 4.299 8.41 7.892l-.758-.758L9.95 4.835H0v-1.07h9.95l-2.298-2.3L8.41.71z"/>
    </symbol>
    <symbol viewBox="0 0 6 12" id="next" xmlns="http://www.w3.org/2000/svg">
        <path d="m.714 1.082 4.286 5-4.286 5"/>
    </symbol>
    <symbol viewBox="0 0 15 12" id="ok" xmlns="http://www.w3.org/2000/svg">
        <path
            d="m14.6 2.82-8.126 8.125a1.247 1.247 0 0 1-1.767 0L.645 6.883a1.248 1.248 0 0 1 0-1.767 1.248 1.248 0 0 1 1.767 0L5.59 8.294l7.241-7.24a1.249 1.249 0 1 1 1.767 1.767z"/>
    </symbol>
    <symbol viewBox="0 0 20 20" id="plus" xmlns="http://www.w3.org/2000/svg">
        <path d="M10 1v18m9-9H1"/>
    </symbol>
    <symbol viewBox="0 0 6 12" id="prev" xmlns="http://www.w3.org/2000/svg">
        <path d="m5 1.082-4.286 5 4.286 5"/>
    </symbol>
    <symbol viewBox="0 0 16 16" id="search" xmlns="http://www.w3.org/2000/svg">
        <path
            d="m15.765 14.634-4.316-4.316a6.355 6.355 0 0 0 1.35-3.918A6.404 6.404 0 0 0 6.4 0 6.407 6.407 0 0 0 0 6.4c0 3.529 2.871 6.4 6.4 6.4 1.42 0 2.8-.476 3.918-1.35l4.316 4.316a.8.8 0 1 0 1.131-1.132zM1.6 6.4c0-2.647 2.153-4.8 4.8-4.8s4.8 2.153 4.8 4.8-2.153 4.8-4.8 4.8a4.805 4.805 0 0 1-4.8-4.8z"/>
    </symbol>
    <symbol viewBox="0 0 14 13" id="star" xmlns="http://www.w3.org/2000/svg">
        <path
            d="M7 .001 9.057 4.17l4.6.668-3.328 3.245.785 4.582L7 10.502l-4.114 2.163.785-4.582L.343 4.838l4.6-.668L7 0z"/>
    </symbol>
    <symbol id='okk' width="30" height="30" viewBox="0 0 30 30" fill="none" xmlns="http://www.w3.org/2000/svg">
        <path d="M15 0C6.72867 0 0 6.72867 0 15C0 23.2713 6.72867 30 15 30C23.2713 30 30 23.2713 30 15C30 6.72867 23.2713 0 15 0Z" fill="#5887FF"/>
        <path d="M22.5994 11.8206L14.4744 19.9455C14.2306 20.1892 13.9106 20.3119 13.5906 20.3119C13.2707 20.3119 12.9507 20.1892 12.7069 19.9455L8.64451 15.883C8.15561 15.3944 8.15561 14.6043 8.64451 14.1156C9.13318 13.6267 9.92303 13.6267 10.4119 14.1156L13.5906 17.2943L20.832 10.0532C21.3207 9.5643 22.1105 9.5643 22.5994 10.0532C23.0881 10.5419 23.0881 11.3317 22.5994 11.8206Z" fill="#FAFAFA"/>
    </symbol>
    <symbol id='err' width="30" height="31" viewBox="0 0 30 31" fill="none" xmlns="http://www.w3.org/2000/svg">
        <path d="M15 0C-4.99784 0.633514 -5.00216 29.6346 15 30.2703C34.9978 29.6368 35.0022 0.635676 15 0Z" fill="#DE2910"/>
        <path d="M16.5287 15.1353L21.1157 10.5483C22.1222 9.571 20.5644 8.01316 19.5871 9.01965L15.0001 13.6067L10.413 9.01965C9.43574 8.01316 7.87791 9.571 8.88439 10.5483L13.4714 15.1353L8.88439 19.7223C7.87899 20.6996 9.43574 22.2586 10.413 21.251L15.0001 16.664L19.5871 21.251C20.5644 22.2586 22.1222 20.6996 21.1157 19.7223L16.5287 15.1353Z" fill="#EEEEEE"/>
    </symbol>
</svg>
